<svg xmlns="http://www.w3.org/2000/svg" version="1.1" xmlns:xlink="http://www.w3.org/1999/xlink" xmlns:svgjs="http://svgjs.dev/svgjs" width="2000" height="2250" viewBox="0 0 2000 2250"><g transform="matrix(1,0,0,1,0,0)"><svg viewBox="0 0 320 360" data-background-color="#ffffff" preserveAspectRatio="xMidYMid meet" height="2250" width="2000" xmlns="http://www.w3.org/2000/svg" xmlns:xlink="http://www.w3.org/1999/xlink"><g id="tight-bounds" transform="matrix(1,0,0,1,0,0)"><svg viewBox="0 0 320 360" height="360" width="320"><g><svg></svg></g><g><svg viewBox="0 0 320 360" height="360" width="320"><g><path xmlns="http://www.w3.org/2000/svg" d="M320 187.111c0-45.764-20.238-86.866-52.203-114.908-28.043-31.964-69.145-52.203-114.908-52.203-84.302 0-152.889 68.587-152.889 152.889 0 45.753 20.231 86.848 52.185 114.891 28.043 31.975 69.152 52.22 114.926 52.22 0.299 0 0.59-0.021 0.889-0.021 0.299 0 0.59 0.021 0.889 0.021 83.456 0 151.111-67.655 151.111-151.111 0-0.299-0.021-0.59-0.021-0.889 0-0.299 0.021-0.59 0.021-0.889zM59.833 263.097c-15.093-21.255-24.071-47.143-24.256-75.097 0.48-72.928 59.492-131.943 132.423-132.423 27.954 0.185 53.845 9.163 75.097 24.256 24.366 23.627 39.57 56.64 39.57 93.056 0 71.559-58.219 129.778-129.778 129.778-36.416 0-69.429-15.204-93.056-39.57zM3.556 172.889c0-82.343 66.99-149.333 149.333-149.333 35.051 0 67.292 12.167 92.8 32.462-22.98-13.824-49.863-21.796-78.578-21.796-84.302 0-152.889 68.587-152.889 152.889 0 28.708 7.968 55.584 21.785 78.56-20.288-25.5-32.452-57.739-32.451-92.782zM167.111 318.667c-35.84 0-68.363-14.418-92.107-37.743 21.952 15.89 48.864 25.298 77.885 25.298 73.522 0 133.333-59.812 133.333-133.333 0-29.02-9.408-55.932-25.298-77.885 23.324 23.744 37.742 56.267 37.743 92.107 0 72.54-59.015 131.556-131.556 131.556z" fill="#28463b" fill-rule="nonzero" stroke="none" stroke-width="1" stroke-linecap="butt" stroke-linejoin="miter" stroke-miterlimit="10" stroke-dasharray="" stroke-dashoffset="0" font-family="none" font-weight="none" font-size="none" text-anchor="none" style="mix-blend-mode: normal" data-fill-palette-color="tertiary"></path></g><g transform="matrix(1,0,0,1,64.00000000000001,161.2109921931555)"><svg viewBox="0 0 191.99999999999997 37.57801561368901" height="37.57801561368901" width="191.99999999999997"><g><svg viewBox="0 0 191.99999999999997 37.57801561368901" height="37.57801561368901" width="191.99999999999997"><g><svg viewBox="0 0 289.32460462159804 56.62627348903548" height="37.57801561368901" width="191.99999999999997"><g transform="matrix(1,0,0,1,0,7.826062399714747)"><svg viewBox="0 0 192 40.97414868960599" height="40.97414868960599" width="192"><g id="textblocktransform"><svg viewBox="0 0 192 40.97414868960599" height="40.97414868960599" width="192" id="textblock"><g><svg viewBox="0 0 192 40.97414868960599" height="40.97414868960599" width="192"><g transform="matrix(1,0,0,1,0,0)"><svg width="192" viewBox="6.449999809265137 -41.5 280.41998291015625 59.849998474121094" height="40.97414868960599" data-palette-color="#28463b"><path d="M39.05-27.55L39.05-27.55Q39.05-25.15 37.98-23.03 36.9-20.9 35-19.23 33.1-17.55 30.55-16.4 28-15.25 25-14.85L25-14.85Q25.75-12.6 26.83-10.23 27.9-7.85 29.15-5.65 30.4-3.45 31.75-1.6 33.1 0.25 34.4 1.45L34.4 1.45Q34.15 1.95 33.68 2.45 33.2 2.95 32.58 3.38 31.95 3.8 31.28 4.08 30.6 4.35 30 4.35L30 4.35Q28.9 4.35 27.9 3.3 26.9 2.25 25.88-0.03 24.85-2.3 23.73-5.93 22.6-9.55 21.25-14.65L21.25-14.65Q20.7-14.65 20.15-14.65 19.6-14.65 19.3-14.75L19.3-14.75Q18.95-14.95 18.55-15.45L18.55-15.45Q17.2-12.55 16.15-10 15.1-7.45 14.28-5.08 13.45-2.7 12.83-0.48 12.2 1.75 11.75 4.05L11.75 4.05Q10.05 3.65 8.8 2.6 7.55 1.55 6.45-0.35L6.45-0.35Q6.65-0.8 6.88-1.23 7.1-1.65 7.45-2.43 7.8-3.2 8.33-4.4 8.85-5.6 9.73-7.6 10.6-9.6 11.83-12.5 13.05-15.4 14.8-19.55L14.8-19.55Q15.6-21.4 16.18-22.8 16.75-24.2 17.2-25.48 17.65-26.75 18.03-28.03 18.4-29.3 18.8-30.95L18.8-30.95Q16.5-30.15 14.53-29.18 12.55-28.2 11.25-27.1L11.25-27.1Q10.8-27.4 10.33-28 9.85-28.6 9.45-29.33 9.05-30.05 8.75-30.8 8.45-31.55 8.4-32.15L8.4-32.15Q9.9-33.15 12.08-34 14.25-34.85 16.7-35.48 19.15-36.1 21.7-36.45 24.25-36.8 26.45-36.8L26.45-36.8Q32.45-36.8 35.75-34.33 39.05-31.85 39.05-27.55ZM26.25-32.7L26.85-31.75Q26.5-31.3 25.75-29.95 25-28.6 24.03-26.73 23.05-24.85 21.98-22.65 20.9-20.45 19.9-18.3L19.9-18.3Q23.65-18.3 26.8-19 29.95-19.7 32.25-20.98 34.55-22.25 35.83-23.98 37.1-25.7 37.1-27.8L37.1-27.8Q37.1-30.3 35.3-31.63 33.5-32.95 29.75-32.95L29.75-32.95Q28.9-32.95 28.05-32.88 27.2-32.8 26.25-32.7L26.25-32.7ZM43.15 1.75L43.15 1.75Q40.3 1.45 38.6-0.75 36.9-2.95 36.9-6.35L36.9-6.35Q36.9-8.35 37.5-10.5 38.1-12.65 39.2-14.68 40.3-16.7 41.8-18.5 43.3-20.3 45.05-21.6L45.05-21.6Q47.8-23.65 50.2-23.65L50.2-23.65Q51.8-22.8 53.35-20.1L53.35-20.1Q53.6-20.1 53.8-20.13 54-20.15 54.25-20.15L54.25-20.15Q56.9-20.15 56.9-15.45L56.9-15.45Q56.9-12.3 55.87-9.47 54.85-6.65 53.02-4.35 51.2-2.05 48.67-0.48 46.15 1.1 43.15 1.75ZM45.7-14L45.7-14Q44.85-12.85 44.1-11.5 43.35-10.15 42.8-8.78 42.25-7.4 41.95-6.13 41.65-4.85 41.65-3.85L41.65-3.85Q41.65-2.65 42.05-1.55 42.45-0.45 42.95-0.3L42.95-0.3Q45.2-0.8 47.07-2.18 48.95-3.55 50.32-5.6 51.7-7.65 52.47-10.25 53.25-12.85 53.25-15.8L53.25-15.8Q53.25-17.1 53.1-17.85 52.95-18.6 52.6-19.15L52.6-19.15Q50.4-18.5 48.67-17.05 46.95-15.6 45.7-14ZM76.55-19.9L76.55-19.9Q76.5-18.95 76.22-17.93 75.95-16.9 75.55-16.07 75.15-15.25 74.7-14.7 74.25-14.15 73.85-14.15L73.85-14.15Q73.3-14.2 73.2-14.9L73.2-14.9Q73.2-15.05 73.32-15.38 73.45-15.7 73.6-16.1 73.75-16.5 73.87-16.9 74-17.3 74-17.6L74-17.6Q74-18.3 73.67-18.78 73.35-19.25 72.8-19.25L72.8-19.25Q70.8-19.25 69.75-16.75 68.7-14.25 68.7-9.4L68.7-9.4Q68.7-8.9 68.75-8.8L68.75-8.8Q69.8-8.85 70.62-8.88 71.45-8.9 72.25-8.9L72.25-8.9Q72.3-8.8 72.3-8.5L72.3-8.5Q72.3-8.05 72.1-7.85L72.1-7.85Q70.95-7.6 70.27-7.43 69.6-7.25 69.25-7.1 68.9-6.95 68.82-6.78 68.75-6.6 68.75-6.3L68.75-6.3Q68.75-5.9 68.77-5.5 68.8-5.1 68.8-4.5L68.8-4.5Q68.8-0.3 66.52 2.25 64.25 4.8 60.2 5.2L60.2 5.2Q59.5 5.15 58.75 4.8 58 4.45 57.32 3.9 56.65 3.35 56.15 2.68 55.65 2 55.45 1.3L55.45 1.3Q55.45-0.6 56.25-2.33 57.05-4.05 58.42-5.38 59.8-6.7 61.67-7.53 63.55-8.35 65.75-8.5L65.75-8.5Q65.75-9.75 65.5-10.95 65.25-12.15 64.97-13.28 64.7-14.4 64.45-15.48 64.2-16.55 64.2-17.6L64.2-17.6Q64.2-18.95 64.75-20.28 65.3-21.6 66.2-22.73 67.1-23.85 68.3-24.65 69.5-25.45 70.8-25.75L70.8-25.75Q71.35-25.6 72.27-24.88 73.2-24.15 74.1-23.25 75-22.35 75.7-21.43 76.4-20.5 76.55-19.9ZM60.05 2.9L60.05 2.9Q61.25 2.4 62.32 1.45 63.4 0.5 64.2-0.7 65-1.9 65.47-3.25 65.95-4.6 65.95-5.9L65.95-5.9Q64.95-5.75 63.75-4.98 62.55-4.2 61.5-3.13 60.45-2.05 59.75-0.9 59.05 0.25 59.05 1.1L59.05 1.1Q59.05 2.2 60.05 2.9ZM76.54-0.85L76.54-0.85Q76.54-2.6 76.89-4.98 77.24-7.35 77.92-10.05 78.59-12.75 79.52-15.7 80.44-18.65 81.59-21.6L81.59-21.6Q82.59-24.25 83.92-26.95 85.24-29.65 86.79-32.25 88.34-34.85 90.02-37.2 91.69-39.55 93.39-41.5L93.39-41.5Q94.19-41.5 95.12-41.3 96.04-41.1 96.92-40.78 97.79-40.45 98.52-40 99.24-39.55 99.69-39.1L99.69-39.1Q95.94-35.25 92.94-31.33 89.94-27.4 88.19-23.95L88.19-23.95Q87.24-22.05 86.47-20.4 85.69-18.75 85.04-17.13 84.39-15.5 83.87-13.88 83.34-12.25 82.89-10.45L82.89-10.45Q92.49-22.7 97.14-22.7L97.14-22.7Q98.44-22.7 99.94-21.85 101.44-21 102.59-19.55L102.59-19.55Q101.04-17.85 99.39-15.45 97.74-13.05 96.37-10.63 94.99-8.2 94.12-6.13 93.24-4.05 93.24-3.05L93.24-3.05Q93.24-2.55 93.39-2.38 93.54-2.2 94.04-2.2L94.04-2.2Q94.79-2.2 95.24-2.4 95.69-2.6 95.79-2.6L95.79-2.6Q96.04-2.2 96.09-2.05 96.14-1.9 96.14-1.8L96.14-1.8Q96.14-1.6 95.54-1.23 94.94-0.85 94.12-0.48 93.29-0.1 92.49 0.2 91.69 0.5 91.29 0.5L91.29 0.5Q90.79 0.5 90.29 0.23 89.79-0.05 89.42-0.5 89.04-0.95 88.82-1.5 88.59-2.05 88.59-2.65L88.59-2.65Q88.59-3.4 89.02-4.88 89.44-6.35 90.19-8.33 90.94-10.3 91.99-12.65 93.04-15 94.24-17.45L94.24-17.45Q94.24-17.65 94.04-17.65L94.04-17.65Q93.89-17.65 93.27-17.25 92.64-16.85 92.09-16.45L92.09-16.45Q90.29-15.1 88.47-13.13 86.64-11.15 84.92-8.8 83.19-6.45 81.67-3.83 80.14-1.2 79.04 1.45L79.04 1.45Q78.89 1.8 78.59 2.1 78.29 2.4 78.09 2.4L78.09 2.4Q77.94 2.4 77.67 2.05 77.39 1.7 77.17 1.18 76.94 0.65 76.74 0.1 76.54-0.45 76.54-0.85ZM119.69-20.2L119.69-20.2Q120.19-20.2 120.87-20.03 121.54-19.85 122.09-19.58 122.64-19.3 123.02-19 123.39-18.7 123.39-18.45L123.39-18.45Q122.39-16.35 121.54-14.23 120.69-12.1 120.09-10.15 119.49-8.2 119.17-6.5 118.84-4.8 118.84-3.55L118.84-3.55Q118.84-2.15 119.14-1.23 119.44-0.3 120.14 0.1L120.14 0.1Q119.54 0.5 118.59 0.75 117.64 1 116.89 1L116.89 1Q114.19 1 114.19-2.7L114.19-2.7Q114.19-5.55 116.09-10.5L116.09-10.5Q115.09-8.2 113.79-6.18 112.49-4.15 111.14-2.6 109.79-1.05 108.42-0.08 107.04 0.9 105.89 1.1L105.89 1.1Q104.04 1 102.89-0.68 101.74-2.35 101.74-4.95L101.74-4.95Q101.74-7.75 102.94-10.85 104.14-13.95 106.02-16.6 107.89-19.25 110.09-21.03 112.29-22.8 114.34-22.9L114.34-22.9Q114.84-22.75 115.47-22.3 116.09-21.85 116.67-21.25 117.24-20.65 117.64-20.03 118.04-19.4 118.09-18.95L118.09-18.95Q116.09-18.65 113.97-17 111.84-15.35 110.12-13.03 108.39-10.7 107.29-8.05 106.19-5.4 106.19-3.1L106.19-3.1Q106.19-2.15 106.89-1.9L106.89-1.9Q108.34-2.2 110.24-4.38 112.14-6.55 114.84-11.1L114.84-11.1Q115.34-12 115.97-13.1 116.59-14.2 117.24-15.4 117.89-16.6 118.52-17.82 119.14-19.05 119.69-20.2ZM134.04-24.25L134.04-24.25Q135.34-23.85 136.49-22.48 137.64-21.1 138.19-19.45L138.19-19.45Q137.64-18.1 136.49-16.2 135.34-14.3 134.19-12.33 133.04-10.35 132.11-8.58 131.19-6.8 131.04-5.65L131.04-5.65Q131.84-6.5 132.81-7.63 133.79-8.75 134.71-9.88 135.64-11 136.44-11.93 137.24-12.85 137.69-13.3L137.69-13.3Q138.64-14.3 139.94-15.63 141.24-16.95 142.66-18.13 144.09-19.3 145.54-20.13 146.99-20.95 148.19-20.95L148.19-20.95Q149.49-20.95 150.36-20.08 151.24-19.2 151.74-18.25L151.74-18.25Q151.74-18.15 151.36-17.98 150.99-17.8 150.29-17L150.29-17Q149.59-16.1 148.71-14.53 147.84-12.95 147.01-11.13 146.19-9.3 145.64-7.4 145.09-5.5 145.09-3.95L145.09-3.95Q145.09-2.7 145.41-2.35 145.74-2 146.34-2L146.34-2Q146.89-2 147.49-2.25 148.09-2.5 148.44-2.5L148.44-2.5Q148.64-2.4 148.76-2.08 148.89-1.75 148.89-1.5L148.89-1.5Q148.49-1.15 147.94-0.8 147.39-0.45 146.79-0.15 146.19 0.15 145.61 0.35 145.04 0.55 144.59 0.55L144.59 0.55Q143.14 0.55 142.21 0.13 141.29-0.3 140.76-1 140.24-1.7 140.04-2.68 139.84-3.65 139.84-4.75L139.84-4.75Q139.84-5.35 139.94-6.1 140.04-6.85 140.34-7.88 140.64-8.9 141.19-10.33 141.74-11.75 142.59-13.75L142.59-13.75Q142.49-13.75 141.24-13.05 139.99-12.35 138.54-10.9L138.54-10.9Q136.19-8.65 134.31-6.45 132.44-4.25 130.49-1.55L130.49-1.55Q129.39 0 128.56 1.07 127.74 2.15 127.14 2.5L127.14 2.5Q126.09 1.9 125.59 0.83 125.09-0.25 124.84-1.4L124.84-1.4Q124.84-2.35 125.11-3.8 125.39-5.25 125.86-7.03 126.34-8.8 127.04-10.75 127.74-12.7 128.59-14.65L128.59-14.65Q130.49-19.05 132.06-21.55 133.64-24.05 134.04-24.25ZM197.63-33.7L197.63-33.7Q197.78-32.85 197.86-32.52 197.93-32.2 197.93-31.65L197.93-31.65Q197.93-30 197.21-28.58 196.48-27.15 195.23-26.55L195.23-26.55Q194.23-27.9 192.78-28.88 191.33-29.85 189.61-30.48 187.88-31.1 186.03-31.4 184.18-31.7 182.43-31.7L182.43-31.7Q180.68-31.7 179.16-31.43 177.63-31.15 176.46-30.68 175.28-30.2 174.61-29.5 173.93-28.8 173.93-27.9L173.93-27.9Q174.08-26.8 175.28-25.68 176.48-24.55 178.23-23.48 179.98-22.4 182.11-21.35 184.23-20.3 186.28-19.35L186.28-19.35Q188.83-18.15 190.68-17.13 192.53-16.1 193.73-14.88 194.93-13.65 195.53-12.1 196.13-10.55 196.13-8.35L196.13-8.35Q196.13-5.8 195.28-3.58 194.43-1.35 192.81 0.3 191.18 1.95 188.88 2.88 186.58 3.8 183.73 3.8L183.73 3.8Q180.93 3.8 177.68 2.95 174.43 2.1 171.61 0.63 168.78-0.85 166.91-2.78 165.03-4.7 165.03-6.85L165.03-6.85Q165.03-7.85 165.61-9.4 166.18-10.95 167.68-12.65L167.68-12.65Q167.83-11.15 169.31-9.1 170.78-7.05 173.73-5.3L173.73-5.3Q176.48-3.7 179.41-2.98 182.33-2.25 184.88-2.25L184.88-2.25Q187.68-2.25 189.43-2.95 191.18-3.65 192.18-4.63 193.18-5.6 193.58-6.6 193.98-7.6 194.03-8.2L194.03-8.2Q193.98-9.2 193.11-10.13 192.23-11.05 190.76-11.93 189.28-12.8 187.33-13.7 185.38-14.6 183.28-15.5L183.28-15.5Q180.13-16.9 177.86-18.13 175.58-19.35 174.11-20.63 172.63-21.9 171.96-23.3 171.28-24.7 171.28-26.5L171.28-26.5Q171.28-29.3 172.98-31.8 174.68-34.3 177.88-35.6L177.88-35.6Q179.48-36.3 181.31-36.6 183.13-36.9 184.88-36.9L184.88-36.9Q188.18-36.9 191.33-36 194.48-35.1 197.63-33.7ZM199.63-3.35L199.63-3.35Q199.63-3.8 199.71-4.48 199.78-5.15 199.98-6.28 200.18-7.4 200.51-9 200.83-10.6 201.33-12.85L201.33-12.85Q201.43-13.35 201.78-14.45 202.13-15.55 202.71-16.78 203.28-18 204.11-19.15 204.93-20.3 206.08-20.85L206.08-20.85Q206.93-20.65 208.33-19.83 209.73-19 210.73-17.55L210.73-17.55Q209.58-16.25 208.81-14.95 208.03-13.65 207.41-12.25 206.78-10.85 206.26-9.35 205.73-7.85 205.08-6.2L205.08-6.2Q204.53-4.8 204.08-3.33 203.63-1.85 203.58-0.75L203.58-0.75Q203.58 0.15 203.56 0.53 203.53 0.9 203.28 0.9L203.28 0.9Q203.08 0.9 202.48 0.65 201.88 0.4 201.26-0.13 200.63-0.65 200.13-1.45 199.63-2.25 199.63-3.35ZM209.18-25.05L209.18-25.05Q209.18-25.35 209.33-25.95L209.33-25.95Q209.08-26.2 208.91-26.7 208.73-27.2 208.73-27.6L208.73-27.6Q208.73-28.05 208.86-28.83 208.98-29.6 209.18-30.5 209.38-31.4 209.68-32.38 209.98-33.35 210.28-34.15L210.28-34.15Q210.88-34.15 211.76-33.83 212.63-33.5 213.53-32.98 214.43-32.45 215.18-31.83 215.93-31.2 216.33-30.65L216.33-30.65Q215.78-30.1 214.88-29.13 213.98-28.15 213.13-27.08 212.28-26 211.58-25.05 210.88-24.1 210.68-23.7L210.68-23.7Q210.08-23.8 209.63-24.23 209.18-24.65 209.18-25.05ZM219.48-24.25L219.48-24.25Q220.78-23.85 221.93-22.48 223.08-21.1 223.63-19.45L223.63-19.45Q223.08-18.1 221.93-16.2 220.78-14.3 219.63-12.33 218.48-10.35 217.55-8.58 216.63-6.8 216.48-5.65L216.48-5.65Q217.28-6.5 218.25-7.63 219.23-8.75 220.15-9.88 221.08-11 221.88-11.93 222.68-12.85 223.13-13.3L223.13-13.3Q224.08-14.3 225.38-15.63 226.68-16.95 228.1-18.13 229.53-19.3 230.98-20.13 232.43-20.95 233.63-20.95L233.63-20.95Q234.93-20.95 235.8-20.08 236.68-19.2 237.18-18.25L237.18-18.25Q237.18-18.15 236.8-17.98 236.43-17.8 235.73-17L235.73-17Q235.03-16.1 234.15-14.53 233.28-12.95 232.45-11.13 231.63-9.3 231.08-7.4 230.53-5.5 230.53-3.95L230.53-3.95Q230.53-2.7 230.85-2.35 231.18-2 231.78-2L231.78-2Q232.33-2 232.93-2.25 233.53-2.5 233.88-2.5L233.88-2.5Q234.08-2.4 234.2-2.08 234.33-1.75 234.33-1.5L234.33-1.5Q233.93-1.15 233.38-0.8 232.83-0.45 232.23-0.15 231.63 0.15 231.05 0.35 230.48 0.55 230.03 0.55L230.03 0.55Q228.58 0.55 227.65 0.13 226.73-0.3 226.2-1 225.68-1.7 225.48-2.68 225.28-3.65 225.28-4.75L225.28-4.75Q225.28-5.35 225.38-6.1 225.48-6.85 225.78-7.88 226.08-8.9 226.63-10.33 227.18-11.75 228.03-13.75L228.03-13.75Q227.93-13.75 226.68-13.05 225.43-12.35 223.98-10.9L223.98-10.9Q221.63-8.65 219.75-6.45 217.88-4.25 215.93-1.55L215.93-1.55Q214.83 0 214 1.07 213.18 2.15 212.58 2.5L212.58 2.5Q211.53 1.9 211.03 0.83 210.53-0.25 210.28-1.4L210.28-1.4Q210.28-2.35 210.55-3.8 210.83-5.25 211.3-7.03 211.78-8.8 212.48-10.75 213.18-12.7 214.03-14.65L214.03-14.65Q215.93-19.05 217.5-21.55 219.08-24.05 219.48-24.25ZM228.28 14.9L228.28 14.9Q228.28 14.6 228.48 14.35 228.68 14.1 228.93 13.85L228.93 13.85Q229.53 14.4 229.95 14.7 230.38 15 230.75 15.2 231.13 15.4 231.53 15.45 231.93 15.5 232.48 15.5L232.48 15.5Q235.08 15.5 237.43 14.13 239.78 12.75 241.85 10.15 243.93 7.55 245.63 3.8 247.33 0.05 248.63-4.7L248.63-4.7Q248.03-4.1 247.15-3.38 246.28-2.65 245.33-2 244.38-1.35 243.45-0.8 242.53-0.25 241.88 0L241.88 0Q241.03-0.15 240.3-0.73 239.58-1.3 239.03-2.15 238.48-3 238.18-4.08 237.88-5.15 237.88-6.35L237.88-6.35Q237.88-8.3 238.6-10.35 239.33-12.4 240.53-14.38 241.73-16.35 243.35-18.1 244.98-19.85 246.8-21.15 248.63-22.45 250.5-23.23 252.38-24 254.18-24L254.18-24Q255.93-24 256.8-23.28 257.68-22.55 258.08-20.8L258.08-20.8Q257.53-21.1 256.68-21.1L256.68-21.1Q255.48-21.1 253.9-20.15 252.33-19.2 250.7-17.68 249.08-16.15 247.48-14.18 245.88-12.2 244.65-10.15 243.43-8.1 242.65-6.15 241.88-4.2 241.88-2.65L241.88-2.65Q241.88-2.3 241.93-2.23 241.98-2.15 242.08-2.15L242.08-2.15Q242.53-2.15 243.3-2.65 244.08-3.15 245.05-3.93 246.03-4.7 247.08-5.73 248.13-6.75 249.08-7.8L249.08-7.8Q251.23-10.2 253-13.18 254.78-16.15 255.83-18.95L255.83-18.95Q257.18-18.85 258.23-18.5 259.28-18.15 259.68-17.75L259.68-17.75Q257.98-13.85 256.95-11.2 255.93-8.55 255.18-6.5L255.18-6.5Q253.83-2.9 252.65 0.08 251.48 3.05 250.25 5.58 249.03 8.1 247.6 10.28 246.18 12.45 244.38 14.45L244.38 14.45Q243.53 15.4 242.45 16.13 241.38 16.85 240.25 17.35 239.13 17.85 238.05 18.1 236.98 18.35 236.08 18.35L236.08 18.35Q234.88 18.35 233.63 18.07 232.38 17.8 231.3 17.32 230.23 16.85 229.43 16.23 228.63 15.6 228.28 14.9ZM260.82-0.85L260.82-0.85Q260.82-2.6 261.17-4.98 261.52-7.35 262.2-10.05 262.87-12.75 263.8-15.7 264.72-18.65 265.87-21.6L265.87-21.6Q266.87-24.25 268.2-26.95 269.52-29.65 271.07-32.25 272.62-34.85 274.3-37.2 275.97-39.55 277.67-41.5L277.67-41.5Q278.47-41.5 279.4-41.3 280.32-41.1 281.2-40.78 282.07-40.45 282.8-40 283.52-39.55 283.97-39.1L283.97-39.1Q280.22-35.25 277.22-31.33 274.22-27.4 272.47-23.95L272.47-23.95Q271.52-22.05 270.75-20.4 269.97-18.75 269.32-17.13 268.67-15.5 268.15-13.88 267.62-12.25 267.17-10.45L267.17-10.45Q276.77-22.7 281.42-22.7L281.42-22.7Q282.72-22.7 284.22-21.85 285.72-21 286.87-19.55L286.87-19.55Q285.32-17.85 283.67-15.45 282.02-13.05 280.65-10.63 279.27-8.2 278.4-6.13 277.52-4.05 277.52-3.05L277.52-3.05Q277.52-2.55 277.67-2.38 277.82-2.2 278.32-2.2L278.32-2.2Q279.07-2.2 279.52-2.4 279.97-2.6 280.07-2.6L280.07-2.6Q280.32-2.2 280.37-2.05 280.42-1.9 280.42-1.8L280.42-1.8Q280.42-1.6 279.82-1.23 279.22-0.85 278.4-0.48 277.57-0.1 276.77 0.2 275.97 0.5 275.57 0.5L275.57 0.5Q275.07 0.5 274.57 0.23 274.07-0.05 273.7-0.5 273.32-0.95 273.1-1.5 272.87-2.05 272.87-2.65L272.87-2.65Q272.87-3.4 273.3-4.88 273.72-6.35 274.47-8.33 275.22-10.3 276.27-12.65 277.32-15 278.52-17.45L278.52-17.45Q278.52-17.65 278.32-17.65L278.32-17.65Q278.17-17.65 277.55-17.25 276.92-16.85 276.37-16.45L276.37-16.45Q274.57-15.1 272.75-13.13 270.92-11.15 269.2-8.8 267.47-6.45 265.95-3.83 264.42-1.2 263.32 1.45L263.32 1.45Q263.17 1.8 262.87 2.1 262.57 2.4 262.37 2.4L262.37 2.4Q262.22 2.4 261.95 2.05 261.67 1.7 261.45 1.18 261.22 0.65 261.02 0.1 260.82-0.45 260.82-0.85Z" opacity="1" transform="matrix(1,0,0,1,0,0)" fill="#28463b" class="wordmark-text-0" data-fill-palette-color="primary" id="text-0"></path></svg></g></svg></g></svg></g></svg></g><g transform="matrix(1,0,0,1,201.67301312604744,0)"><svg viewBox="0 0 87.65159149555065 56.62627348903548" height="56.62627348903548" width="87.65159149555065"><g><svg xmlns="http://www.w3.org/2000/svg" xmlns:xlink="http://www.w3.org/1999/xlink" version="1.1" x="0" y="0" viewBox="5.710000038146973 21.066999435424805 88.57990264892578 57.22599792480469" enable-background="new 0 0 100 100" xml:space="preserve" height="56.62627348903548" width="87.65159149555065" class="icon-icon-0" data-fill-palette-color="accent" id="icon-0"><g fill="#7f9b7f" data-fill-palette-color="accent"><g fill="#7f9b7f" data-fill-palette-color="accent"><g fill="#7f9b7f" data-fill-palette-color="accent"><path d="M14.254 71.932c-1.739-0.502-3.03-2.094-3.03-3.988V25.234c0-2.292 1.877-4.167 4.168-4.167h67.53c2.292 0 4.168 1.875 4.168 4.167v42.708c0 1.895-1.29 3.488-3.03 3.99h-1.611H14.254zM15.111 68.652h68.09V24.523H15.112L15.111 68.652 15.111 68.652z" fill="#7f9b7f" data-fill-palette-color="accent"></path><path d="M94.289 73.869H54.563c-0.021 0.436-0.198 1.756-1.684 1.756-3.738 0-3.864 0-7.602 0-1.69 0-1.897-1.32-1.921-1.756H5.71c0 0 0 4.424 3.234 4.424 3.234 0 78.207 0 81.853 0C94.441 78.293 94.289 73.869 94.289 73.869z" fill="#7f9b7f" data-fill-palette-color="accent"></path><path d="M77.399 64.922c-5.575 0-11.015 0-16.566 0 0-2.357 0-4.684 0-7.146 5.468 0 10.967 0 16.566 0C77.399 60.125 77.399 62.451 77.399 64.922z" fill="#7f9b7f" data-fill-palette-color="accent"></path><path d="M77.399 35.683c-18.516 0-36.582 0-55.018 0 0-2.356 0-4.683 0-7.146 18.157 0 36.422 0 55.018 0C77.399 30.887 77.399 33.212 77.399 35.683z" fill="#7f9b7f" data-fill-palette-color="accent"></path><g fill="#7f9b7f" data-fill-palette-color="accent"><path d="M58.185 62.256c-5.574 0-11.014 0-16.565 0 0-0.592 0-1.178 0-1.797 5.467 0 10.967 0 16.565 0C58.185 61.049 58.185 61.635 58.185 62.256z" fill="#7f9b7f" data-fill-palette-color="accent"></path><path d="M58.185 64.893c-5.574 0-11.014 0-16.565 0 0-0.592 0-1.178 0-1.795 5.467 0 10.967 0 16.565 0C58.185 63.688 58.185 64.273 58.185 64.893z" fill="#7f9b7f" data-fill-palette-color="accent"></path><path d="M58.185 59.617c-5.574 0-11.014 0-16.565 0 0-0.592 0-1.176 0-1.795 5.467 0 10.967 0 16.565 0C58.185 58.412 58.185 58.998 58.185 59.617z" fill="#7f9b7f" data-fill-palette-color="accent"></path></g><g fill="#7f9b7f" data-fill-palette-color="accent"><path d="M77.399 42.786c-5.575 0-11.015 0-16.566 0 0-0.593 0-1.178 0-1.797 5.468 0 10.967 0 16.566 0C77.399 41.58 77.399 42.165 77.399 42.786z" fill="#7f9b7f" data-fill-palette-color="accent"></path><path d="M77.399 45.423c-5.575 0-11.015 0-16.566 0 0-0.592 0-1.177 0-1.795 5.468 0 10.967 0 16.566 0C77.399 44.217 77.399 44.803 77.399 45.423z" fill="#7f9b7f" data-fill-palette-color="accent"></path><path d="M77.399 40.148c-5.575 0-11.015 0-16.566 0 0-0.593 0-1.177 0-1.796 5.468 0 10.967 0 16.566 0C77.399 38.943 77.399 39.527 77.399 40.148z" fill="#7f9b7f" data-fill-palette-color="accent"></path></g><g fill="#7f9b7f" data-fill-palette-color="accent"><path d="M77.399 50.68c-5.575 0-11.015 0-16.566 0 0-0.593 0-1.178 0-1.796 5.468 0 10.967 0 16.566 0C77.399 49.473 77.399 50.059 77.399 50.68z" fill="#7f9b7f" data-fill-palette-color="accent"></path><path d="M77.399 53.316c-5.575 0-11.015 0-16.566 0 0-0.592 0-1.178 0-1.795 5.468 0 10.967 0 16.566 0C77.399 52.111 77.399 52.695 77.399 53.316z" fill="#7f9b7f" data-fill-palette-color="accent"></path><path d="M77.399 48.042c-5.575 0-11.015 0-16.566 0 0-0.592 0-1.177 0-1.795 5.468 0 10.967 0 16.566 0C77.399 46.836 77.399 47.422 77.399 48.042z" fill="#7f9b7f" data-fill-palette-color="accent"></path></g><g fill="#7f9b7f" data-fill-palette-color="accent"><path d="M38.945 62.256c-5.575 0-11.014 0-16.565 0 0-0.592 0-1.178 0-1.797 5.467 0 10.966 0 16.565 0C38.945 61.049 38.945 61.635 38.945 62.256z" fill="#7f9b7f" data-fill-palette-color="accent"></path><path d="M38.945 64.893c-5.575 0-11.014 0-16.565 0 0-0.592 0-1.178 0-1.795 5.467 0 10.966 0 16.565 0C38.945 63.688 38.945 64.273 38.945 64.893z" fill="#7f9b7f" data-fill-palette-color="accent"></path><path d="M38.945 59.617c-5.575 0-11.014 0-16.565 0 0-0.592 0-1.176 0-1.795 5.467 0 10.966 0 16.565 0C38.945 58.412 38.945 58.998 38.945 59.617z" fill="#7f9b7f" data-fill-palette-color="accent"></path></g><g fill="#7f9b7f" data-fill-palette-color="accent"><path d="M58.185 42.786c-12.049 0-23.807 0-35.805 0 0-0.593 0-1.178 0-1.797 11.816 0 23.703 0 35.805 0C58.185 41.58 58.185 42.165 58.185 42.786z" fill="#7f9b7f" data-fill-palette-color="accent"></path><path d="M58.185 45.423c-12.049 0-23.807 0-35.805 0 0-0.592 0-1.177 0-1.795 11.816 0 23.703 0 35.805 0C58.185 44.217 58.185 44.803 58.185 45.423z" fill="#7f9b7f" data-fill-palette-color="accent"></path><path d="M58.185 40.148c-12.049 0-23.807 0-35.805 0 0-0.593 0-1.177 0-1.796 11.816 0 23.703 0 35.805 0C58.185 38.943 58.185 39.527 58.185 40.148z" fill="#7f9b7f" data-fill-palette-color="accent"></path></g><path d="M22.381 49.048c6.771 0 13.448 0 20.202 0 0 1.293 0 2.522 0 3.877-6.708 0-13.415 0-20.202 0C22.381 51.666 22.381 50.433 22.381 49.048z" fill="#7f9b7f" data-fill-palette-color="accent"></path></g><g fill="#7f9b7f" data-fill-palette-color="accent"><path d="M14.254 71.932c-1.739-0.502-3.03-2.094-3.03-3.988V25.234c0-2.292 1.877-4.167 4.168-4.167h67.53c2.292 0 4.168 1.875 4.168 4.167v42.708c0 1.895-1.29 3.488-3.03 3.99h-1.611H14.254zM15.111 68.652h68.09V24.523H15.112L15.111 68.652 15.111 68.652z" fill="#7f9b7f" data-fill-palette-color="accent"></path><path d="M94.289 73.869H54.563c-0.021 0.436-0.198 1.756-1.684 1.756-3.738 0-3.864 0-7.602 0-1.69 0-1.897-1.32-1.921-1.756H5.71c0 0 0 4.424 3.234 4.424 3.234 0 78.207 0 81.853 0C94.441 78.293 94.289 73.869 94.289 73.869z" fill="#7f9b7f" data-fill-palette-color="accent"></path><path fill-rule="evenodd" clip-rule="evenodd" d="M77.399 64.922c-5.575 0-11.015 0-16.566 0 0-2.357 0-4.684 0-7.146 5.468 0 10.967 0 16.566 0C77.399 60.125 77.399 62.451 77.399 64.922z" fill="#7f9b7f" data-fill-palette-color="accent"></path><path fill-rule="evenodd" clip-rule="evenodd" d="M77.399 35.683c-18.516 0-36.582 0-55.018 0 0-2.356 0-4.683 0-7.146 18.157 0 36.422 0 55.018 0C77.399 30.887 77.399 33.212 77.399 35.683z" fill="#7f9b7f" data-fill-palette-color="accent"></path><g fill="#7f9b7f" data-fill-palette-color="accent"><path fill-rule="evenodd" clip-rule="evenodd" d="M58.185 62.256c-5.574 0-11.014 0-16.565 0 0-0.592 0-1.178 0-1.797 5.467 0 10.967 0 16.565 0C58.185 61.049 58.185 61.635 58.185 62.256z" fill="#7f9b7f" data-fill-palette-color="accent"></path><path fill-rule="evenodd" clip-rule="evenodd" d="M58.185 64.893c-5.574 0-11.014 0-16.565 0 0-0.592 0-1.178 0-1.795 5.467 0 10.967 0 16.565 0C58.185 63.688 58.185 64.273 58.185 64.893z" fill="#7f9b7f" data-fill-palette-color="accent"></path><path fill-rule="evenodd" clip-rule="evenodd" d="M58.185 59.617c-5.574 0-11.014 0-16.565 0 0-0.592 0-1.176 0-1.795 5.467 0 10.967 0 16.565 0C58.185 58.412 58.185 58.998 58.185 59.617z" fill="#7f9b7f" data-fill-palette-color="accent"></path></g><g fill="#7f9b7f" data-fill-palette-color="accent"><path fill-rule="evenodd" clip-rule="evenodd" d="M77.399 42.786c-5.575 0-11.015 0-16.566 0 0-0.593 0-1.178 0-1.797 5.468 0 10.967 0 16.566 0C77.399 41.58 77.399 42.165 77.399 42.786z" fill="#7f9b7f" data-fill-palette-color="accent"></path><path fill-rule="evenodd" clip-rule="evenodd" d="M77.399 45.423c-5.575 0-11.015 0-16.566 0 0-0.592 0-1.177 0-1.795 5.468 0 10.967 0 16.566 0C77.399 44.217 77.399 44.803 77.399 45.423z" fill="#7f9b7f" data-fill-palette-color="accent"></path><path fill-rule="evenodd" clip-rule="evenodd" d="M77.399 40.148c-5.575 0-11.015 0-16.566 0 0-0.593 0-1.177 0-1.796 5.468 0 10.967 0 16.566 0C77.399 38.943 77.399 39.527 77.399 40.148z" fill="#7f9b7f" data-fill-palette-color="accent"></path></g><g fill="#7f9b7f" data-fill-palette-color="accent"><path fill-rule="evenodd" clip-rule="evenodd" d="M77.399 50.68c-5.575 0-11.015 0-16.566 0 0-0.593 0-1.178 0-1.796 5.468 0 10.967 0 16.566 0C77.399 49.473 77.399 50.059 77.399 50.68z" fill="#7f9b7f" data-fill-palette-color="accent"></path><path fill-rule="evenodd" clip-rule="evenodd" d="M77.399 53.316c-5.575 0-11.015 0-16.566 0 0-0.592 0-1.178 0-1.795 5.468 0 10.967 0 16.566 0C77.399 52.111 77.399 52.695 77.399 53.316z" fill="#7f9b7f" data-fill-palette-color="accent"></path><path fill-rule="evenodd" clip-rule="evenodd" d="M77.399 48.042c-5.575 0-11.015 0-16.566 0 0-0.592 0-1.177 0-1.795 5.468 0 10.967 0 16.566 0C77.399 46.836 77.399 47.422 77.399 48.042z" fill="#7f9b7f" data-fill-palette-color="accent"></path></g><g fill="#7f9b7f" data-fill-palette-color="accent"><path fill-rule="evenodd" clip-rule="evenodd" d="M38.945 62.256c-5.575 0-11.014 0-16.565 0 0-0.592 0-1.178 0-1.797 5.467 0 10.966 0 16.565 0C38.945 61.049 38.945 61.635 38.945 62.256z" fill="#7f9b7f" data-fill-palette-color="accent"></path><path fill-rule="evenodd" clip-rule="evenodd" d="M38.945 64.893c-5.575 0-11.014 0-16.565 0 0-0.592 0-1.178 0-1.795 5.467 0 10.966 0 16.565 0C38.945 63.688 38.945 64.273 38.945 64.893z" fill="#7f9b7f" data-fill-palette-color="accent"></path><path fill-rule="evenodd" clip-rule="evenodd" d="M38.945 59.617c-5.575 0-11.014 0-16.565 0 0-0.592 0-1.176 0-1.795 5.467 0 10.966 0 16.565 0C38.945 58.412 38.945 58.998 38.945 59.617z" fill="#7f9b7f" data-fill-palette-color="accent"></path></g><g fill="#7f9b7f" data-fill-palette-color="accent"><path fill-rule="evenodd" clip-rule="evenodd" d="M58.185 42.786c-12.049 0-23.807 0-35.805 0 0-0.593 0-1.178 0-1.797 11.816 0 23.703 0 35.805 0C58.185 41.58 58.185 42.165 58.185 42.786z" fill="#7f9b7f" data-fill-palette-color="accent"></path><path fill-rule="evenodd" clip-rule="evenodd" d="M58.185 45.423c-12.049 0-23.807 0-35.805 0 0-0.592 0-1.177 0-1.795 11.816 0 23.703 0 35.805 0C58.185 44.217 58.185 44.803 58.185 45.423z" fill="#7f9b7f" data-fill-palette-color="accent"></path><path fill-rule="evenodd" clip-rule="evenodd" d="M58.185 40.148c-12.049 0-23.807 0-35.805 0 0-0.593 0-1.177 0-1.796 11.816 0 23.703 0 35.805 0C58.185 38.943 58.185 39.527 58.185 40.148z" fill="#7f9b7f" data-fill-palette-color="accent"></path></g><path fill-rule="evenodd" clip-rule="evenodd" d="M22.381 49.048c6.771 0 13.448 0 20.202 0 0 1.293 0 2.522 0 3.877-6.708 0-13.415 0-20.202 0C22.381 51.666 22.381 50.433 22.381 49.048z" fill="#7f9b7f" data-fill-palette-color="accent"></path></g></g></g><g fill="#7f9b7f" data-fill-palette-color="accent"><path display="none" fill="#7f9b7f" d="M72.833 12.854c-19.33 0-35 15.67-35 35 0 19.33 15.67 35 35 35s35-15.67 35-35C107.833 28.524 92.163 12.854 72.833 12.854zM95.084 61.404l-8.702 8.701L72.83 56.557 59.285 70.102 50.582 61.4l13.546-13.547L50.582 34.307l8.703-8.703L72.83 39.15l13.55-13.548 8.704 8.703L81.533 47.854 95.084 61.404z" data-fill-palette-color="accent"></path></g><g display="none" fill="#7f9b7f" data-fill-palette-color="accent"><polygon display="inline" points="31.732,40.371 36.83,43.638 40.639,35.904 34.943,33.856  " fill="#7f9b7f" data-fill-palette-color="accent"></polygon><path display="inline" d="M66.378 49.502c-13.742-6.766-20.781-11.889-24.931-13.227l-3.854 7.84c3.591 2.474 11.703 4.755 25.442 11.522 30.146 14.852 31.802 12.967 32.387 11.796C96.217 65.84 96.521 64.353 66.378 49.502z" fill="#7f9b7f" data-fill-palette-color="accent"></path><path display="inline" d="M15.484 25.396C11.636 26.737 6.239 29.107 3 31.253c0 0 10.07-2.617 13.754 3.707 2.511 4.307 6.322 9.378 14.173 5.076l3.168-6.433C33.595 28.411 30.336 21.457 15.484 25.396zM24.741 38.624c0 0-3.305 2.467-7.083-4.034-2.209-3.8-9.695-4.477-9.695-4.477s9.208-0.399 12.909 1.051C24.645 32.645 27.188 37.207 24.741 38.624z" fill="#7f9b7f" data-fill-palette-color="accent"></path><polygon display="inline" points="39.833,68.134 44.635,64.445 38.646,58.241 34.789,62.911  " fill="#7f9b7f" data-fill-palette-color="accent"></polygon><path display="inline" d="M87.189 17.71c-0.913-0.937-3.065-2.226-27.246 21.109C48.923 49.456 41.896 54.104 39.228 57.556l6.062 6.29c3.545-2.54 8.686-9.567 19.706-20.201C89.176 20.308 88.431 18.982 87.189 17.71z" fill="#7f9b7f" data-fill-palette-color="accent"></path><path display="inline" d="M39.105 68.632l-4.981-5.159c-8.788-1.701-10.872 4.29-11.948 9.158-1.58 7.147-11.968 7.726-11.968 7.726 3.739 1.057 9.602 1.667 13.674 1.771C39.229 81.349 40.213 73.73 39.105 68.632zM27.254 74.986c-3.083 2.513-11.974 4.94-11.974 4.94s6.923-2.926 7.868-7.22c1.615-7.342 5.516-6.002 5.516-6.002C31.426 67.307 30.396 72.429 27.254 74.986z" fill="#7f9b7f" data-fill-palette-color="accent"></path></g></svg></g></svg></g></svg></g></svg></g></svg></g></svg></g><defs></defs></svg><rect width="320" height="360" fill="none" stroke="none" visibility="hidden"></rect></g></svg></g></svg>